<svg xmlns="http://www.w3.org/2000/svg" viewBox="115 165 765 670" style="display:block;fill:white;stroke:white;width:100%"><g xmlns="http://www.w3.org/2000/svg"><path d="M676.5 265.7c6.3 41.6 2.5 83.8 6.1 125.7 0.2 2.8 4.7 3 4.5 0.1 -3.7-42.2 0.1-84.8-6.2-126.9C680.4 261.8 676.1 262.9 676.5 265.7L676.5 265.7z"/><path d="M676.5 263c-2 14.8-11.3 27.1-16.9 40.7 -1.1 2.7 3.2 3.9 4.3 1.3 5.8-14.1 15-26.5 17.1-41.9C681.3 260.3 676.9 260.2 676.5 263L676.5 263z"/><path d="M680.1 283.3c-6.5 11.9-12.3 24.3-17.1 37 -1 2.7 3.3 4 4.3 1.3 4.7-12.4 10.3-24.4 16.6-36C685.2 283.2 681.4 280.8 680.1 283.3L680.1 283.3z"/><path d="M680 298.3c-6.1 14.7-16.4 27.5-19.7 43.4 -0.6 2.8 3.7 4.1 4.3 1.3 3.3-15.8 13.6-28.7 19.7-43.4C685.4 296.9 681.1 295.7 680 298.3L680 298.3z"/><path d="M681.3 311.1c-4 15-13.1 28-17.6 42.9 -0.8 2.8 3.4 4 4.3 1.3 4.5-14.9 13.6-27.8 17.6-42.9C686.3 309.7 682.1 308.4 681.3 311.1L681.3 311.1z"/><path d="M681 334.8c1.5 2.6-6.4 14.1-7.7 16.4 -3 5.3-6.4 10.6-8.7 16.2 -1.1 2.7 3.2 3.9 4.3 1.3 3-7.1 7.5-13.7 11.2-20.4 1.8-3.4 7.5-11.5 5-15.6C683.4 330.2 679.5 332.3 681 334.8L681 334.8z"/><path d="M677.8 263.6c9.4 13.2 13.6 29 22 42.7 1.5 2.4 5.4 0.3 3.9-2.1 -8.3-13.7-12.6-29.6-22-42.7C680.1 259.2 676.2 261.3 677.8 263.6L677.8 263.6z"/><path d="M679.2 289.8c7.1 8.9 10.2 20.2 16.1 29.8 1.5 2.4 5.4 0.3 3.9-2.1 -6.1-10-9.4-21.5-16.7-30.8C680.6 284.4 677.4 287.5 679.2 289.8L679.2 289.8z"/><path d="M681.9 306.4c-0.3 11.1 10.6 20.1 14.6 29.8 1.1 2.7 5 0.5 3.9-2.1 -1.9-4.7-5-9-7.7-13.3 -2.6-4.1-6.4-9.2-6.3-14.3C686.4 303.7 682 303.5 681.9 306.4L681.9 306.4z"/><path d="M682 328.4c2.5 11.3 11.1 19.7 16.1 29.8 1.3 2.6 5.2 0.4 3.9-2.1 -4.8-9.7-13.2-17.9-15.7-28.7C685.7 324.5 681.4 325.6 682 328.4L682 328.4z"/><path d="M681.2 349.2c3.4 8.1 8.6 15.1 12.8 22.7 1.4 2.5 5.3 0.4 3.9-2.1 -4.2-7.6-9.4-14.7-12.8-22.7C684 344.4 680.1 346.6 681.2 349.2L681.2 349.2z"/></g><g xmlns="http://www.w3.org/2000/svg"><path d="M341.9 304c0.5 28.4 0.9 56.8 1.4 85.3 0 2.7 4.3 2.6 4.2-0.1 -0.5-28.4-0.9-56.8-1.4-85.3C346 301.2 341.8 301.3 341.9 304L341.9 304z"/><path d="M342.4 300.3c-9.9 9.4-16.6 21.6-23.3 33.4 -1.4 2.4 2.3 4.4 3.7 2.1 6.6-11.4 13-23.4 22.7-32.5C347.4 301.3 344.4 298.4 342.4 300.3L342.4 300.3z"/><path d="M342.3 313.1c-6.8 9.3-14.2 18.2-19.7 28.4 -1.3 2.4 2.4 4.4 3.7 2.1 5.6-10.1 12.9-19.1 19.7-28.4C347.6 312.9 343.9 310.9 342.3 313.1L342.3 313.1z"/><path d="M342.8 325c-7.7 9.2-14.7 18.8-21.2 28.8 -1.5 2.3 2.2 4.3 3.7 2.1 6.3-9.7 13.1-19.1 20.5-28C347.6 325.8 344.6 322.9 342.8 325L342.8 325z"/><path d="M341.6 336.6c-6.7 12.3-16.2 22.6-24.1 34.1 -1.5 2.2 2.1 4.3 3.7 2.1 7.9-11.5 17.4-21.8 24.1-34.1C346.6 336.3 342.9 334.2 341.6 336.6L341.6 336.6z"/><path d="M342.9 348.9c-5.6 10.2-13 19.1-20.5 28 -1.7 2.1 1.3 5 3 2.9 7.7-9.1 15.4-18.3 21.2-28.8C347.9 348.6 344.2 346.6 342.9 348.9L342.9 348.9z"/><path d="M345.6 305c4.6 8.7 9.9 17.1 13.7 26.2 1 2.5 5.1 1.3 4-1.2 -3.9-9.5-9.3-18.2-14.1-27.2C347.9 300.4 344.3 302.6 345.6 305L345.6 305z"/><path d="M343.5 318.5c4.7 9.5 14 16.5 13.6 27.9 -0.1 2.7 4.1 2.6 4.2-0.1 0.4-12.4-9.1-19.7-14.2-30C345.9 313.9 342.3 316.1 343.5 318.5L343.5 318.5z"/><path d="M341.5 332c5.2 9.6 12.5 17.9 17.3 27.8 1.2 2.4 4.8 0.2 3.6-2.2 -4.8-9.9-12.1-18.1-17.3-27.8C343.8 327.4 340.2 329.6 341.5 332L341.5 332z"/><path d="M341 348.2c6.7 6.5 13.1 13.1 15.5 22.4 0.7 2.6 4.7 1.4 4-1.2 -2.7-10-9.4-17.2-16.6-24.2C342 343.2 339 346.3 341 348.2L341 348.2z"/></g><g xmlns="http://www.w3.org/2000/svg"><path d="M542.5 197.2c11.4 67.3 6.5 135.8 13.6 203.5 0.5 4.6 7.7 4.7 7.2 0.1 -7.2-68.3-2.3-137.5-13.8-205.4C548.7 190.8 541.7 192.6 542.5 197.2L542.5 197.2z"/><path d="M542.4 192.8c-2.8 24.1-17.6 44.3-26.2 66.5 -1.7 4.4 5.3 6.3 7 2 8.9-23 23.5-43.4 26.5-68.4C550.1 188.2 542.9 188.2 542.4 192.8L542.4 192.8z"/><path d="M548.8 225.6c-10.3 19.5-19.2 39.8-26.6 60.5 -1.6 4.4 5.4 6.3 7 2 7.3-20.2 15.9-39.8 25.9-58.8C557.1 225.2 550.9 221.5 548.8 225.6L548.8 225.6z"/><path d="M549.1 249.9c-9.5 24-25.8 45.1-30.7 70.9 -0.9 4.5 6.1 6.6 7 2 4.8-25.7 21.2-46.9 30.7-70.9C557.8 247.5 550.8 245.6 549.1 249.9L549.1 249.9z"/><path d="M551.6 270.7c-6 24.5-20.4 45.8-27.2 70 -1.3 4.5 5.7 6.5 7 2 6.8-24.3 21.1-45.5 27.2-70C559.7 268.1 552.8 266.2 551.6 270.7L551.6 270.7z"/><path d="M551.8 309c2.6 4.1-10 23.1-12 26.9 -4.6 8.7-10 17.3-13.7 26.5 -1.7 4.3 5.2 6.3 7 2 4.6-11.6 11.8-22.4 17.5-33.5 2.9-5.6 11.8-18.9 7.6-25.5C555.6 301.5 549.3 305 551.8 309L551.8 309z"/><path d="M544.6 193.8c15.6 21.1 23 46.6 36.9 68.6 2.5 3.9 8.8 0.4 6.3-3.6 -13.9-22-21.3-47.5-36.9-68.6C548.1 186.5 541.8 190 544.6 193.8L544.6 193.8z"/><path d="M547.5 236.1c11.8 14.3 17.1 32.4 26.9 47.9 2.5 3.9 8.8 0.4 6.3-3.6 -10.2-16.1-15.8-34.6-28-49.4C549.7 227.4 544.6 232.5 547.5 236.1L547.5 236.1z"/><path d="M552.4 263c-0.1 17.9 17.8 32.2 24.5 47.9 1.8 4.3 8.1 0.6 6.3-3.6 -3.3-7.6-8.3-14.4-12.9-21.3 -4.4-6.6-10.7-14.7-10.6-22.9C559.7 258.4 552.4 258.3 552.4 263L552.4 263z"/><path d="M553.2 298.6c4.4 18.2 18.5 31.5 27 47.8 2.2 4.1 8.4 0.5 6.3-3.6 -8.1-15.6-22-28.6-26.3-46C559.1 292.2 552.1 294.1 553.2 298.6L553.2 298.6z"/><path d="M552.6 332.4c5.8 12.9 14.4 24.3 21.5 36.5 2.3 4 8.6 0.4 6.3-3.6 -7.1-12.2-15.7-23.5-21.5-36.5C556.9 324.5 550.7 328.2 552.6 332.4L552.6 332.4z"/></g><g xmlns="http://www.w3.org/2000/svg"><path d="M410.1 210.7c9 52.9 5.1 106.8 10.7 160 0.4 3.6 6.1 3.7 5.7 0 -5.7-53.7-1.8-108.1-10.9-161.5C414.9 205.6 409.4 207.1 410.1 210.7L410.1 210.7z"/><path d="M410 207.2c-2.2 18.9-13.8 34.8-20.6 52.3 -1.3 3.4 4.2 4.9 5.5 1.6 7-18.1 18.5-34.1 20.8-53.8C416.1 203.6 410.4 203.6 410 207.2L410 207.2z"/><path d="M415 233.1c-8.1 15.3-15.1 31.3-21 47.6 -1.2 3.5 4.2 5 5.5 1.6 5.7-15.9 12.5-31.3 20.4-46.2C421.6 232.7 416.7 229.8 415 233.1L415 233.1z"/><path d="M415.3 252.1c-7.4 18.9-20.3 35.5-24.1 55.7 -0.7 3.6 4.8 5.2 5.5 1.6 3.8-20.2 16.7-36.9 24.1-55.7C422.1 250.3 416.6 248.8 415.3 252.1L415.3 252.1z"/><path d="M417.3 268.5c-4.8 19.3-16 36-21.4 55.1 -1 3.5 4.5 5.1 5.5 1.6 5.4-19.1 16.6-35.8 21.4-55.1C423.6 266.5 418.1 264.9 417.3 268.5L417.3 268.5z"/><path d="M417.4 298.6c2 3.2-7.9 18.1-9.5 21.1 -3.7 6.9-7.9 13.6-10.8 20.9 -1.4 3.4 4.1 4.9 5.5 1.6 3.6-9.1 9.3-17.6 13.7-26.3 2.3-4.4 9.2-14.8 6-20C420.4 292.7 415.4 295.5 417.4 298.6L417.4 298.6z"/><path d="M411.7 208c12.2 16.6 18.1 36.6 29 53.9 2 3.1 6.9 0.3 4.9-2.8 -11-17.3-16.8-37.4-29-53.9C414.5 202.3 409.5 205 411.7 208L411.7 208z"/><path d="M414 241.3c9.2 11.2 13.4 25.5 21.2 37.7 2 3.1 6.9 0.3 4.9-2.8 -8-12.6-12.5-27.2-22-38.8C415.8 234.5 411.7 238.5 414 241.3L414 241.3z"/><path d="M417.9 262.4c-0.1 14.1 14 25.4 19.3 37.6 1.4 3.4 6.4 0.5 4.9-2.8 -2.6-6-6.5-11.3-10.1-16.7 -3.5-5.2-8.4-11.5-8.4-18C423.6 258.8 417.9 258.8 417.9 262.4L417.9 262.4z"/><path d="M418.5 290.4c3.5 14.3 14.6 24.8 21.2 37.6 1.7 3.3 6.6 0.4 4.9-2.8 -6.4-12.3-17.3-22.5-20.7-36.2C423.1 285.4 417.7 286.9 418.5 290.4L418.5 290.4z"/><path d="M418 317c4.5 10.2 11.3 19.1 16.9 28.7 1.8 3.2 6.8 0.4 4.9-2.8 -5.6-9.6-12.4-18.5-16.9-28.7C421.4 310.8 416.5 313.7 418 317L418 317z"/></g><g xmlns="http://www.w3.org/2000/svg"><path d="M484 302.8c0.5 28.4 0.9 56.8 1.4 85.3 0 2.7 4.3 2.6 4.2-0.1 -0.5-28.4-0.9-56.8-1.4-85.3C488.2 300 484 300.1 484 302.8L484 302.8z"/><path d="M484.6 299.1c-9.9 9.4-16.6 21.6-23.3 33.4 -1.4 2.4 2.3 4.4 3.7 2.1 6.6-11.4 13-23.4 22.7-32.5C489.6 300.1 486.5 297.2 484.6 299.1L484.6 299.1z"/><path d="M484.5 311.9c-6.8 9.3-14.2 18.2-19.7 28.4 -1.3 2.4 2.4 4.4 3.7 2.1 5.6-10.1 12.9-19.1 19.7-28.4C489.7 311.7 486 309.7 484.5 311.9L484.5 311.9z"/><path d="M485 323.8c-7.7 9.2-14.7 18.8-21.2 28.8 -1.5 2.3 2.2 4.3 3.7 2.1 6.3-9.7 13.1-19.1 20.5-28C489.7 324.6 486.7 321.7 485 323.8L485 323.8z"/><path d="M483.7 335.4c-6.7 12.3-16.2 22.6-24.1 34.1 -1.5 2.2 2.1 4.3 3.7 2.1 7.9-11.5 17.4-21.8 24.1-34.1C488.7 335.1 485 333 483.7 335.4L483.7 335.4z"/><path d="M485 347.8c-5.6 10.2-13 19.1-20.5 28 -1.7 2.1 1.3 5 3 2.9 7.7-9.1 15.4-18.3 21.2-28.8C490 347.4 486.4 345.4 485 347.8L485 347.8z"/><path d="M487.7 303.8c4.6 8.7 9.9 17.1 13.7 26.2 1 2.5 5.1 1.3 4-1.2 -3.9-9.5-9.3-18.2-14.1-27.2C490 299.2 486.4 301.4 487.7 303.8L487.7 303.8z"/><path d="M485.7 317.3c4.7 9.5 14 16.5 13.6 27.9 -0.1 2.7 4.1 2.6 4.2-0.1 0.4-12.4-9.1-19.7-14.2-30C488.1 312.7 484.5 314.9 485.7 317.3L485.7 317.3z"/><path d="M483.6 330.8c5.2 9.6 12.5 17.9 17.3 27.8 1.2 2.4 4.8 0.2 3.6-2.2 -4.8-9.9-12.1-18.1-17.3-27.8C485.9 326.3 482.4 328.4 483.6 330.8L483.6 330.8z"/><path d="M483.1 347c6.7 6.5 13.1 13.1 15.5 22.4 0.7 2.6 4.7 1.4 4-1.2 -2.7-10-9.4-17.2-16.6-24.2C484.1 342.1 481.2 345.1 483.1 347L483.1 347z"/></g><g xmlns="http://www.w3.org/2000/svg"><path d="M619.9 280.8c0.5 28.4 0.9 56.8 1.4 85.3 0 2.7 4.3 2.6 4.2-0.1 -0.5-28.4-0.9-56.8-1.4-85.3C624 278 619.8 278.1 619.9 280.8L619.9 280.8z"/><path d="M620.4 277.1c-9.9 9.4-16.6 21.6-23.3 33.4 -1.4 2.4 2.3 4.4 3.7 2.1 6.6-11.4 13-23.4 22.7-32.5C625.4 278.1 622.4 275.2 620.4 277.1L620.4 277.1z"/><path d="M620.3 289.8c-6.8 9.3-14.2 18.2-19.7 28.4 -1.3 2.4 2.4 4.4 3.7 2.1 5.6-10.1 12.9-19.1 19.7-28.4C625.6 289.7 621.9 287.7 620.3 289.8L620.3 289.8z"/><path d="M620.8 301.7c-7.7 9.2-14.7 18.8-21.2 28.8 -1.5 2.3 2.2 4.3 3.7 2.1 6.3-9.7 13.1-19.1 20.5-28C625.6 302.6 622.6 299.6 620.8 301.7L620.8 301.7z"/><path d="M619.6 313.4c-6.7 12.3-16.2 22.6-24.1 34.1 -1.5 2.2 2.1 4.3 3.7 2.1 7.9-11.5 17.4-21.8 24.1-34.1C624.5 313.1 620.9 311 619.6 313.4L619.6 313.4z"/><path d="M620.9 325.7c-5.6 10.2-13 19.1-20.5 28 -1.7 2.1 1.3 5 3 2.9 7.7-9.1 15.4-18.3 21.2-28.8C625.9 325.4 622.2 323.3 620.9 325.7L620.9 325.7z"/><path d="M623.5 281.8c4.6 8.7 9.9 17.1 13.7 26.2 1 2.5 5.1 1.3 4-1.2 -3.9-9.5-9.3-18.2-14.1-27.2C625.9 277.2 622.3 279.4 623.5 281.8L623.5 281.8z"/><path d="M621.5 295.3c4.7 9.5 14 16.5 13.6 27.9 -0.1 2.7 4.1 2.6 4.2-0.1 0.4-12.4-9.1-19.7-14.2-30C623.9 290.7 620.3 292.9 621.5 295.3L621.5 295.3z"/><path d="M619.5 308.8c5.2 9.6 12.5 17.9 17.3 27.8 1.2 2.4 4.8 0.2 3.6-2.2 -4.8-9.9-12.1-18.1-17.3-27.8C621.8 304.2 618.2 306.4 619.5 308.8L619.5 308.8z"/><path d="M619 324.9c6.7 6.5 13.1 13.1 15.5 22.4 0.7 2.6 4.7 1.4 4-1.2 -2.7-10-9.4-17.2-16.6-24.2C619.9 320 617 323 619 324.9L619 324.9z"/></g><path xmlns="http://www.w3.org/2000/svg" d="M286.4 342.3c0 0-48.9 25.7-50.7 131.6s5.9 151.3-20.1 145.6c-9.1-2.9-4.8-12.4 0.4-11.8 5.2 0.5 13.2-6.9-2.4-17.4 -15.5-10.5-20 11.9-13.3 22.8 6.6 10.9 19.9 23.9 33.2 12.9 13.3-11 13.9-29.8 14.2-38.7 0.3-8.9 1.5-121.1 3-130.3 1.4-9.2 8.2-89.5 40.5-103.9L286.4 342.3z"/><path xmlns="http://www.w3.org/2000/svg" d="M282.2 374.6l8.1 5.2c0 0-11 59-10.9 79.4s4.8 89.8 11.1 100.6c0 0-6 9.4-17.1-2.8 -11.2-12.2-4.3-112.5-2.6-125.4C272.3 418.6 282.2 374.6 282.2 374.6z"/><path xmlns="http://www.w3.org/2000/svg" d="M339.1 462.4c0 0-43.3-4.4-42.8 47.4 0.4 51.8 36.5 37.9 36.5 37.9l-3.1-8.9c0 0-28.5-0.7-21.3-35.9s26.9-27.8 26.9-27.8 -2.5 69 9.1 82.5c6.3 0.9 8.6-1.2 8.6-1.2s-20.4-53.9 4.2-97.4l-16 1.4L339.1 462.4z"/><path xmlns="http://www.w3.org/2000/svg" d="M373.3 539c19.4-5.7 8.7-70.9 8.7-70.9s1.3-8.7 9.9-11.2c4.4 14.9 8.7 77.2 22.3 67.3 13.7-9.9 1-59.2 1-59.2l15.2-11.5c0 0 5.1 40.4 8 59.8 2.8 19.4 19.5 44.1 14.6 43.6 -4.9-0.5-8.3-4.4-8.3-4.4l-15.2-27.3c0 0 7.5-13.1-5.3 10.3 -12.7 23.4-25.5-4-28-1.3 -2.5 2.7-15.8 21.5-27.8 15.1l-4.6-7.7C363.7 541.7 361.4 542.9 373.3 539z"/><path xmlns="http://www.w3.org/2000/svg" d="M498.2 544.2c1.1 2.4 4 0.7 5.2 0.7 -1.8-14 0-79.8 0.5-82.2 0.5-2.4 8.6-8.1 6.3-11 -2.3-2.8-38.6 7.7-44.5 9.4 -5.9 1.8-23 9.1-21.9 15 1.1 5.9 7.3-2.7 11.9 0.6 4.6 3.3 7.7 71.6 7.7 71.6s10.1 2.5 10.2 0.5c0.1-2-9.3-59.8-2-69.7 0 0 11.7-12.6 17.8-8.9C489.4 470.3 493.1 533 498.2 544.2z"/><path xmlns="http://www.w3.org/2000/svg" d="M541 458c0 0-28.3-8.2-27.3 40.1 1 48.3 16.3 45 24.4 45.8 0 0 33.4 1.7 35.9-42 2.5-43.7-23.8-44-23.8-44l-11.9 12.1c0 0 16.6 2.9 22.4 18.5 5 13.6 4.3 36.6-18.5 41.8s-17.2-45.1-17.8-39.1C523.9 497.2 528.6 457.6 541 458z"/><path xmlns="http://www.w3.org/2000/svg" d="M621 397.9c0 0 14.3 3.2 15.1 26.9 0.8 23.7-15.6 52.5-15.6 52.5s18.6 19.2 17.2 37.3c-1.4 18-4 34.8-31.3 34.3 -26.9-0.5-21-38.5-21-38.5s15-12.3 15-13.6c0-1.4-11.5 37 8.3 36.6 8-0.1 17.3-7.5 18.2-19.4 0.5-6.6-0.7-22-9.1-29.3 -5.5-4.9-6.6-8.1-6-11 1-4.7 17.6-28.4 16-42.6 -1.5-13-5.9-13.4-9.6-13.1 -8.7 0.6-16.8 22-16.7 36.7 0.1 15.1-1.2 22.9 0.4 29.6 1.6 7.1-25.4 17.9-32.2 34.8 -7.9 1.6-5.8 0.3-5.8 0.3s6.7-27.5 29.5-33.5C586.8 453.3 590.9 389.5 621 397.9z"/><path xmlns="http://www.w3.org/2000/svg" d="M336 605.1c0 0 3.2 90.4-6.5 98.8 -9.3 8.2-21.6 17.3-30.5 4.9 -8.9-12.5 4.1-27.5 9.4-27.5 -42.9 7.1-21.9 44-8.3 52.2s30.8-4.5 34.3-8.6c9.4-10.8 13-27.5 12.3-49.9 -0.7-22.4-2.6-51.3-2.8-62.5C343.9 606.9 343.6 603.8 336 605.1z"/><path xmlns="http://www.w3.org/2000/svg" d="M322 628.2c0 0-14.4-42.2 18-42.3s31.9 37.3 20.5 45c-11.4 7.7 19.9 0.9 27.9 40.6 7.9 39.8-22.7 74.2-73.7 75 -50.9 0.9-15.5-14.3-63.3 21.2 31.1 0.6 36.9-0.4 51.2-3 12.4-2.2 102.9-18.9 103.7-75.7 0.7-56.8-25.7-61.5-28.5-63.1 -2.8-1.5 34.5-64.5-51.5-51.9C302.1 575.9 287.9 626.7 322 628.2z"/><path xmlns="http://www.w3.org/2000/svg" d="M431.6 672.9c0.2-7.1 6.4-26.6 16.7-26.3 0 0-30.5-6.8-28.9 31.5 1.5 38.2 17.5 37.3 26.4 37.7 9 0.4 36.2 0.5 38.4-34 2.2-34.6-26-35.1-26-35.1l-12.7 9.5c0 0 21.4 2.3 25.3 15.3 3.3 10.9 5.1 33.8-20.1 36.1 0 0-12.4 0.6-17.4-12C431.5 690.5 431.2 688.7 431.6 672.9z"/><path xmlns="http://www.w3.org/2000/svg" d="M494.9 706.4c0 0 1.2-120.5 15.1-108.9 25.5 21.3 28.7 102 29.4 125.9 -12.4-6.3-12.3-11.5-12.4-15.9s-7.8-88.1-15.8-89.6 -1.1 88.4-5.5 89.8C501.3 709.1 500.5 713.7 494.9 706.4z"/><path xmlns="http://www.w3.org/2000/svg" d="M545.9 652.2c0 0 12.1 53.8 8.4 61.4 -3.7 7.6 14.7 2.4 14.7 2.4l-0.7-26.3c0 0 16.8-3.8 18.6-1.7 1.8 2.1 2.5 26.8 7.3 29.5 4.9 2.6 10.7 1.9 10.7 1.9s-4.2-65.9-1.1-68.3c0 0-18.3 1.2-19.7-2.8 0 0 3.3 22-0.2 25.3 -3.5 3.3-12.1 1.1-18.1 5.3 0 0-5.4-23.3-6.5-27.7S552.3 655.8 545.9 652.2z"/><path xmlns="http://www.w3.org/2000/svg" d="M658.2 655c0 0-55.5-6.6-46.5 31.6 8.9 38.2 52.4 30.8 52.4 30.8l-5.4-6.8c0 0-36.2-2.8-32.8-28.1 3.4-25.3 29.5-18.4 29.5-18.4s8.1 50.7 25 61.5c8.2 1.2 10.7-0.2 10.7-0.2s-34.6-41.3-10.5-71.5l-20-0.2L658.2 655z"/><path xmlns="http://www.w3.org/2000/svg" d="M687.9 677.9c0 0 9-16.6 21.1-13.4 12.1 3.3 69.3 39.1 85.4 33.2s17.5-14.7 16.4-24.7c-1.1-10.1-18.4-17.5-29.1-8.9 0 0 2.1-17.6 20.2-17 18.1 0.6 19.2 18.8 20 23.4 0.8 4.5-2.2 62.3-56.3 36.6 -54.2-25.7-58.2-29.4-71-24.7C681.9 686.9 687.9 677.9 687.9 677.9z"/><path xmlns="http://www.w3.org/2000/svg" d="M313.6 422.1c0 0-13.4 27.1 39.5-1.8 52.9-28.9 65.5-30.1 107.4-17 42 13.1 53.3 27.1 99.2 17.2 7.8 18.2 9.7 20 9.7 20s-24.4 9.1-84.3-15.2 -79.9-16.1-101.3-4.5c-21.4 11.6-41.9 27.6-58.4 20.5C308.9 434.1 318.2 426.7 313.6 422.1z"/><path xmlns="http://www.w3.org/2000/svg" d="M649.8 412.6l11.2 16.7c0 0 42 17 69.6-1.7 28.4-19.3 14.9-81.8-24.6-53.5 -7.4 5.8-8.6 24.9 12 25.9s0-33.7 9.1-16c9.1 17.7 11.6 31.5-20.4 34.5S653.2 412.9 649.8 412.6z"/><path xmlns="http://www.w3.org/2000/svg" d="M687.7 455.6c0 0-43.3-4.4-42.8 47.4 0.4 51.8 36.5 37.9 36.5 37.9l-3.1-8.9c0 0-28.5-0.7-21.3-35.9s26.9-27.8 26.9-27.8 -2.5 69 9.1 82.5c6.3 0.9 8.6-1.2 8.6-1.2s-20.4-53.9 4.2-97.4l-16 1.4L687.7 455.6z"/><path xmlns="http://www.w3.org/2000/svg" d="M572.3 499.9c0 0 12.9-15.2 24.8-13.8 11.9 1.3 16.9-14.8 16.9-14.8l6.5 7.1c0 0-24.5 12.4-28.1 16.8 -3.6 4.5-20.7 15.8-24.1 24"/><path xmlns="http://www.w3.org/2000/svg" d="M612.3 472.2c0 0-11.7 16.1-19.4 14l3.9 4.1 19.3-10.8L612.3 472.2z"/><path xmlns="http://www.w3.org/2000/svg" d="M267.2 684.1c0 0-9.6-16.3-21.5-12.7s-67.9 41.4-84.3 36 -18-14.1-17.2-24.2 17.8-18.1 28.8-9.9c0 0-2.7-17.5-20.7-16.4s-18.6 19.5-19.2 24c-0.7 4.6 4.2 62.2 57.5 34.7 53.3-27.4 57.2-31.3 70.1-27.1S267.2 684.1 267.2 684.1z"/><path xmlns="http://www.w3.org/2000/svg" d="M750.5 449.9c0 0-82 20.5-24.3 92.9 11.8 11.4 20.2 0 20.2 0s-27 89.2-97.2 63c-70.2-26.3-124.1-77.2-199-26.7 -8 8.3 67.3-39.1 193.6 40.9 76.5 41.3 111.1-58.3 111.1-58.3s11.5 0.6 16.9 18.9c21.5 0 22.5-5.6 22.5-5.6s-28.7-43.7-50.6-44.1c-21.9-0.4-30-43.5-12-55.7 21.8-14.8 25.9 17.9 18.7 46.4l11.8 9.5C762.2 531 787 443.4 750.5 449.9z"/><polygon xmlns="http://www.w3.org/2000/svg" points="806.1 420.1 819.3 417.2 820.6 403.7 827.5 415.4 840.7 412.4 831.7 422.6 838.6 434.2 826.2 428.8 817.3 439 818.5 425.5 "/><polygon xmlns="http://www.w3.org/2000/svg" points="707.4 749.6 712.8 756.2 720.4 753.2 716.1 760.4 721.4 767 713.4 764.8 709 771.9 708.4 763.4 700.4 761.1 708 758.1 "/><polygon xmlns="http://www.w3.org/2000/svg" points="258.5 787.9 258 799.7 268.2 803.2 257.6 807.1 257.1 819 251.1 809.5 240.6 813.3 247.4 803.6 241.4 794.1 251.6 797.6 "/><polygon xmlns="http://www.w3.org/2000/svg" points="134.1 483.1 150.4 480.9 153.3 464.8 160.4 479.6 176.7 477.4 164.8 488.7 171.9 503.5 157.4 495.7 145.5 507 148.5 490.9 "/><polygon xmlns="http://www.w3.org/2000/svg" points="195.8 379.1 201.5 380.8 205 375.9 205.1 381.9 210.9 383.6 205.2 385.6 205.3 391.7 201.7 386.9 196 388.8 199.4 383.9 "/><polygon xmlns="http://www.w3.org/2000/svg" points="418.9 611.5 428.3 604.3 424.4 593.2 434.1 599.9 443.5 592.7 440.2 604 449.9 610.7 438.1 611 434.7 622.4 430.8 611.2 "/><polygon xmlns="http://www.w3.org/2000/svg" points="852.5 516.2 857.9 519 862.2 514.7 861.2 520.7 866.6 523.4 860.6 524.4 859.7 530.3 856.9 524.9 851 525.8 855.3 521.6 "/><polygon xmlns="http://www.w3.org/2000/svg" points="783.1 610.4 786.9 617.7 795 616.3 789.3 622.2 793.1 629.4 785.7 625.8 780 631.6 781.2 623.5 773.9 619.9 781.9 618.5 "/><polygon xmlns="http://www.w3.org/2000/svg" points="172.8 627.4 179.4 632.2 186.1 627.5 183.5 635.2 190.1 640.1 181.9 640 179.3 647.8 176.9 640 168.7 640 175.3 635.2 "/><polygon xmlns="http://www.w3.org/2000/svg" points="829.7 749.2 835.7 753.6 841.8 749.2 839.5 756.4 845.5 760.8 838 760.8 835.6 767.9 833.4 760.7 825.9 760.7 832 756.3 "/><path xmlns="http://www.w3.org/2000/svg" d="M536 736.3c-52-13.5-153.9 9.2-153.9 9.2s72-2.8 123.6 6.7c10 1.8 17.9 2.5 27.6 4.4 66.9 13.1 107.9-6.9 131.9-22.3 -18.6 5.3-48.7 14.6-95 9.2C559 742.1 549.4 739.7 536 736.3z"/><path xmlns="http://www.w3.org/2000/svg" d="M616.2 208c-8.9 13.3-6.3 30.6 5.7 38.6 3.9 2.6 8.2 3.9 12.7 4 -11.3-8.2-13.5-25-4.8-38 6-9 15.7-13.9 25.1-13.7 -0.3-0.2-0.6-0.4-0.8-0.6C642 190.3 625.1 194.7 616.2 208z"/><polygon xmlns="http://www.w3.org/2000/svg" points="679.6 221.3 679.6 227.3 685.3 229.2 679.5 231 679.4 237.1 675.9 232.1 670.2 233.9 673.8 229.1 670.3 224.2 676 226.1 "/><polygon xmlns="http://www.w3.org/2000/svg" points="303.7 206.5 309.3 212.4 316.7 208.9 312.8 216.1 318.4 222 310.4 220.5 306.5 227.7 305.4 219.6 297.4 218.1 304.8 214.6 "/><polygon xmlns="http://www.w3.org/2000/svg" points="278.8 281.8 278.7 290 286.4 292.7 278.6 295.1 278.5 303.3 273.8 296.6 265.9 299 270.8 292.5 266.1 285.8 273.9 288.4 "/><polygon xmlns="http://www.w3.org/2000/svg" points="735.8 254.7 741.6 256.4 745 251.5 745.2 257.5 750.9 259.3 745.2 261.3 745.4 267.3 741.7 262.5 736 264.5 739.5 259.5 "/><polygon xmlns="http://www.w3.org/2000/svg" points="473.4 184.9 479.2 186.6 482.7 181.6 482.8 187.7 488.6 189.4 482.9 191.4 483 197.5 479.4 192.6 473.7 194.6 477.1 189.7 "/></svg>